<?xml version="1.0" encoding="UTF-8" standalone="no"?><svg xmlns="http://www.w3.org/2000/svg" xmlns:xlink="http://www.w3.org/1999/xlink" contentScriptType="application/ecmascript" contentStyleType="text/css" height="522px" preserveAspectRatio="none" style="width:772px;height:522px;" version="1.1" viewBox="0 0 772 522" width="772px" zoomAndPan="magnify"><defs><filter height="300%" id="f1skz8siqtr0ck" width="300%" x="-1" y="-1"><feGaussianBlur result="blurOut" stdDeviation="2.0"/><feColorMatrix in="blurOut" result="blurOut2" type="matrix" values="0 0 0 0 0 0 0 0 0 0 0 0 0 0 0 0 0 0 .4 0"/><feOffset dx="4.0" dy="4.0" in="blurOut2" result="blurOut3"/><feBlend in="SourceGraphic" in2="blurOut3" mode="normal"/></filter></defs><g><!--cluster domain.model.edit--><polygon fill="#FFFFFF" filter="url(#f1skz8siqtr0ck)" points="22,24,161,24,168,46.4883,282,46.4883,282,510,22,510,22,24" style="stroke: #000000; stroke-width: 2.0;"/><line style="stroke: #000000; stroke-width: 2.0;" x1="22" x2="168" y1="46.4883" y2="46.4883"/><text fill="#000000" font-family="sans-serif" font-size="14" font-weight="bold" lengthAdjust="spacingAndGlyphs" textLength="133" x="26" y="39.5352">domain.model.edit</text><!--cluster domain.model.view--><polygon fill="#FFFFFF" filter="url(#f1skz8siqtr0ck)" points="490,24,634,24,641,46.4883,750,46.4883,750,510,490,510,490,24" style="stroke: #000000; stroke-width: 2.0;"/><line style="stroke: #000000; stroke-width: 2.0;" x1="490" x2="641" y1="46.4883" y2="46.4883"/><text fill="#000000" font-family="sans-serif" font-size="14" font-weight="bold" lengthAdjust="spacingAndGlyphs" textLength="138" x="494" y="39.5352">domain.model.view</text><!--cluster domain.model.user--><polygon fill="#FFFFFF" filter="url(#f1skz8siqtr0ck)" points="310,24,452,24,459,46.4883,462,46.4883,462,274,310,274,310,24" style="stroke: #000000; stroke-width: 2.0;"/><line style="stroke: #000000; stroke-width: 2.0;" x1="310" x2="459" y1="46.4883" y2="46.4883"/><text fill="#000000" font-family="sans-serif" font-size="14" font-weight="bold" lengthAdjust="spacingAndGlyphs" textLength="136" x="314" y="39.5352">domain.model.user</text><!--class Editor--><rect fill="#FEFECE" filter="url(#f1skz8siqtr0ck)" height="60.9551" id="Editor" style="stroke: #A80036; stroke-width: 1.5;" width="73" x="157.5" y="59"/><ellipse cx="175.65" cy="75" fill="#ADD1B2" rx="11" ry="11" style="stroke: #A80036; stroke-width: 1.0;"/><path d="M178.6231,80.6431 Q178.0421,80.9419 177.4029,81.0913 Q176.7638,81.2407 176.0582,81.2407 Q173.5514,81.2407 172.2315,79.5889 Q170.9117,77.937 170.9117,74.8159 Q170.9117,71.6865 172.2315,70.0347 Q173.5514,68.3828 176.0582,68.3828 Q176.7638,68.3828 177.4112,68.5322 Q178.0587,68.6816 178.6231,68.9805 L178.6231,71.7031 Q177.9923,71.1221 177.3988,70.8523 Q176.8053,70.5825 176.1744,70.5825 Q174.8297,70.5825 174.1449,71.6492 Q173.4601,72.7158 173.4601,74.8159 Q173.4601,76.9077 174.1449,77.9744 Q174.8297,79.041 176.1744,79.041 Q176.8053,79.041 177.3988,78.7712 Q177.9923,78.5015 178.6231,77.9204 Z "/><text fill="#000000" font-family="sans-serif" font-size="12" lengthAdjust="spacingAndGlyphs" textLength="34" x="190.35" y="79.5352">Editor</text><line style="stroke: #A80036; stroke-width: 1.5;" x1="158.5" x2="229.5" y1="91" y2="91"/><text fill="#000000" font-family="sans-serif" font-size="11" lengthAdjust="spacingAndGlyphs" textLength="61" x="163.5" y="105.6348">user_id: str</text><line style="stroke: #A80036; stroke-width: 1.5;" x1="158.5" x2="229.5" y1="111.9551" y2="111.9551"/><!--class domain.model.edit.AccessControlledArticleRepository--><rect fill="#FEFECE" filter="url(#f1skz8siqtr0ck)" height="48" id="domain.model.edit.AccessControlledArticleRepository" style="stroke: #A80036; stroke-width: 1.5;" width="227" x="38.5" y="203.5"/><ellipse cx="53.5" cy="219.5" fill="#ADD1B2" rx="11" ry="11" style="stroke: #A80036; stroke-width: 1.0;"/><path d="M56.4731,225.1431 Q55.8921,225.4419 55.2529,225.5913 Q54.6138,225.7407 53.9082,225.7407 Q51.4014,225.7407 50.0815,224.0889 Q48.7617,222.437 48.7617,219.3159 Q48.7617,216.1865 50.0815,214.5347 Q51.4014,212.8828 53.9082,212.8828 Q54.6138,212.8828 55.2612,213.0322 Q55.9087,213.1816 56.4731,213.4805 L56.4731,216.2031 Q55.8423,215.6221 55.2488,215.3523 Q54.6553,215.0825 54.0244,215.0825 Q52.6797,215.0825 51.9949,216.1492 Q51.3101,217.2158 51.3101,219.3159 Q51.3101,221.4077 51.9949,222.4744 Q52.6797,223.541 54.0244,223.541 Q54.6553,223.541 55.2488,223.2712 Q55.8423,223.0015 56.4731,222.4204 Z "/><text fill="#000000" font-family="sans-serif" font-size="12" lengthAdjust="spacingAndGlyphs" textLength="195" x="67.5" y="224.0352">AccessControlledArticleRepository</text><line style="stroke: #A80036; stroke-width: 1.5;" x1="39.5" x2="264.5" y1="235.5" y2="235.5"/><line style="stroke: #A80036; stroke-width: 1.5;" x1="39.5" x2="264.5" y1="243.5" y2="243.5"/><!--class domain.model.edit.ArticleRepository--><rect fill="#FEFECE" filter="url(#f1skz8siqtr0ck)" height="48" id="domain.model.edit.ArticleRepository" style="stroke: #A80036; stroke-width: 1.5;" width="129" x="87.5" y="337"/><ellipse cx="102.5" cy="353" fill="#ADD1B2" rx="11" ry="11" style="stroke: #A80036; stroke-width: 1.0;"/><path d="M105.4731,358.6431 Q104.8921,358.9419 104.2529,359.0913 Q103.6138,359.2407 102.9082,359.2407 Q100.4014,359.2407 99.0815,357.5889 Q97.7617,355.937 97.7617,352.8159 Q97.7617,349.6865 99.0815,348.0347 Q100.4014,346.3828 102.9082,346.3828 Q103.6138,346.3828 104.2612,346.5322 Q104.9087,346.6816 105.4731,346.9805 L105.4731,349.7031 Q104.8423,349.1221 104.2488,348.8523 Q103.6553,348.5825 103.0244,348.5825 Q101.6797,348.5825 100.9949,349.6492 Q100.3101,350.7158 100.3101,352.8159 Q100.3101,354.9077 100.9949,355.9744 Q101.6797,357.041 103.0244,357.041 Q103.6553,357.041 104.2488,356.7712 Q104.8423,356.5015 105.4731,355.9204 Z "/><text fill="#000000" font-family="sans-serif" font-size="12" lengthAdjust="spacingAndGlyphs" textLength="97" x="116.5" y="357.5352">ArticleRepository</text><line style="stroke: #A80036; stroke-width: 1.5;" x1="88.5" x2="215.5" y1="369" y2="369"/><line style="stroke: #A80036; stroke-width: 1.5;" x1="88.5" x2="215.5" y1="377" y2="377"/><!--class domain.model.edit.Article--><rect fill="#FEFECE" filter="url(#f1skz8siqtr0ck)" height="48" id="domain.model.edit.Article" style="stroke: #A80036; stroke-width: 1.5;" width="68" x="118" y="446"/><ellipse cx="133" cy="462" fill="#ADD1B2" rx="11" ry="11" style="stroke: #A80036; stroke-width: 1.0;"/><path d="M135.9731,467.6431 Q135.3921,467.9419 134.7529,468.0913 Q134.1138,468.2407 133.4082,468.2407 Q130.9014,468.2407 129.5815,466.5889 Q128.2617,464.937 128.2617,461.8159 Q128.2617,458.6865 129.5815,457.0347 Q130.9014,455.3828 133.4082,455.3828 Q134.1138,455.3828 134.7612,455.5322 Q135.4087,455.6816 135.9731,455.9805 L135.9731,458.7031 Q135.3423,458.1221 134.7488,457.8523 Q134.1553,457.5825 133.5244,457.5825 Q132.1797,457.5825 131.4949,458.6492 Q130.8101,459.7158 130.8101,461.8159 Q130.8101,463.9077 131.4949,464.9744 Q132.1797,466.041 133.5244,466.041 Q134.1553,466.041 134.7488,465.7712 Q135.3423,465.5015 135.9731,464.9204 Z "/><text fill="#000000" font-family="sans-serif" font-size="12" lengthAdjust="spacingAndGlyphs" textLength="36" x="147" y="466.5352">Article</text><line style="stroke: #A80036; stroke-width: 1.5;" x1="119" x2="185" y1="478" y2="478"/><line style="stroke: #A80036; stroke-width: 1.5;" x1="119" x2="185" y1="486" y2="486"/><!--class Viewer--><rect fill="#FEFECE" filter="url(#f1skz8siqtr0ck)" height="60.9551" id="Viewer" style="stroke: #A80036; stroke-width: 1.5;" width="73" x="544.5" y="59"/><ellipse cx="560.4" cy="75" fill="#ADD1B2" rx="11" ry="11" style="stroke: #A80036; stroke-width: 1.0;"/><path d="M563.3731,80.6431 Q562.7921,80.9419 562.1529,81.0913 Q561.5138,81.2407 560.8082,81.2407 Q558.3014,81.2407 556.9815,79.5889 Q555.6617,77.937 555.6617,74.8159 Q555.6617,71.6865 556.9815,70.0347 Q558.3014,68.3828 560.8082,68.3828 Q561.5138,68.3828 562.1612,68.5322 Q562.8087,68.6816 563.3731,68.9805 L563.3731,71.7031 Q562.7423,71.1221 562.1488,70.8523 Q561.5553,70.5825 560.9244,70.5825 Q559.5797,70.5825 558.8949,71.6492 Q558.2101,72.7158 558.2101,74.8159 Q558.2101,76.9077 558.8949,77.9744 Q559.5797,79.041 560.9244,79.041 Q561.5553,79.041 562.1488,78.7712 Q562.7423,78.5015 563.3731,77.9204 Z "/><text fill="#000000" font-family="sans-serif" font-size="12" lengthAdjust="spacingAndGlyphs" textLength="39" x="574.6" y="79.5352">Viewer</text><line style="stroke: #A80036; stroke-width: 1.5;" x1="545.5" x2="616.5" y1="91" y2="91"/><text fill="#000000" font-family="sans-serif" font-size="11" lengthAdjust="spacingAndGlyphs" textLength="61" x="550.5" y="105.6348">user_id: str</text><line style="stroke: #A80036; stroke-width: 1.5;" x1="545.5" x2="616.5" y1="111.9551" y2="111.9551"/><!--class domain.model.view.AccessControlledArticleRepository--><rect fill="#FEFECE" filter="url(#f1skz8siqtr0ck)" height="48" id="domain.model.view.AccessControlledArticleRepository" style="stroke: #A80036; stroke-width: 1.5;" width="227" x="506.5" y="203.5"/><ellipse cx="521.5" cy="219.5" fill="#ADD1B2" rx="11" ry="11" style="stroke: #A80036; stroke-width: 1.0;"/><path d="M524.4731,225.1431 Q523.8921,225.4419 523.2529,225.5913 Q522.6138,225.7407 521.9082,225.7407 Q519.4014,225.7407 518.0815,224.0889 Q516.7617,222.437 516.7617,219.3159 Q516.7617,216.1865 518.0815,214.5347 Q519.4014,212.8828 521.9082,212.8828 Q522.6138,212.8828 523.2612,213.0322 Q523.9087,213.1816 524.4731,213.4805 L524.4731,216.2031 Q523.8423,215.6221 523.2488,215.3523 Q522.6553,215.0825 522.0244,215.0825 Q520.6797,215.0825 519.9949,216.1492 Q519.3101,217.2158 519.3101,219.3159 Q519.3101,221.4077 519.9949,222.4744 Q520.6797,223.541 522.0244,223.541 Q522.6553,223.541 523.2488,223.2712 Q523.8423,223.0015 524.4731,222.4204 Z "/><text fill="#000000" font-family="sans-serif" font-size="12" lengthAdjust="spacingAndGlyphs" textLength="195" x="535.5" y="224.0352">AccessControlledArticleRepository</text><line style="stroke: #A80036; stroke-width: 1.5;" x1="507.5" x2="732.5" y1="235.5" y2="235.5"/><line style="stroke: #A80036; stroke-width: 1.5;" x1="507.5" x2="732.5" y1="243.5" y2="243.5"/><!--class domain.model.view.ArticleRepository--><rect fill="#FEFECE" filter="url(#f1skz8siqtr0ck)" height="48" id="domain.model.view.ArticleRepository" style="stroke: #A80036; stroke-width: 1.5;" width="129" x="555.5" y="337"/><ellipse cx="570.5" cy="353" fill="#ADD1B2" rx="11" ry="11" style="stroke: #A80036; stroke-width: 1.0;"/><path d="M573.4731,358.6431 Q572.8921,358.9419 572.2529,359.0913 Q571.6138,359.2407 570.9082,359.2407 Q568.4014,359.2407 567.0815,357.5889 Q565.7617,355.937 565.7617,352.8159 Q565.7617,349.6865 567.0815,348.0347 Q568.4014,346.3828 570.9082,346.3828 Q571.6138,346.3828 572.2612,346.5322 Q572.9087,346.6816 573.4731,346.9805 L573.4731,349.7031 Q572.8423,349.1221 572.2488,348.8523 Q571.6553,348.5825 571.0244,348.5825 Q569.6797,348.5825 568.9949,349.6492 Q568.3101,350.7158 568.3101,352.8159 Q568.3101,354.9077 568.9949,355.9744 Q569.6797,357.041 571.0244,357.041 Q571.6553,357.041 572.2488,356.7712 Q572.8423,356.5015 573.4731,355.9204 Z "/><text fill="#000000" font-family="sans-serif" font-size="12" lengthAdjust="spacingAndGlyphs" textLength="97" x="584.5" y="357.5352">ArticleRepository</text><line style="stroke: #A80036; stroke-width: 1.5;" x1="556.5" x2="683.5" y1="369" y2="369"/><line style="stroke: #A80036; stroke-width: 1.5;" x1="556.5" x2="683.5" y1="377" y2="377"/><!--class domain.model.view.Article--><rect fill="#FEFECE" filter="url(#f1skz8siqtr0ck)" height="48" id="domain.model.view.Article" style="stroke: #A80036; stroke-width: 1.5;" width="68" x="586" y="446"/><ellipse cx="601" cy="462" fill="#ADD1B2" rx="11" ry="11" style="stroke: #A80036; stroke-width: 1.0;"/><path d="M603.9731,467.6431 Q603.3921,467.9419 602.7529,468.0913 Q602.1138,468.2407 601.4082,468.2407 Q598.9014,468.2407 597.5815,466.5889 Q596.2617,464.937 596.2617,461.8159 Q596.2617,458.6865 597.5815,457.0347 Q598.9014,455.3828 601.4082,455.3828 Q602.1138,455.3828 602.7612,455.5322 Q603.4087,455.6816 603.9731,455.9805 L603.9731,458.7031 Q603.3423,458.1221 602.7488,457.8523 Q602.1553,457.5825 601.5244,457.5825 Q600.1797,457.5825 599.4949,458.6492 Q598.8101,459.7158 598.8101,461.8159 Q598.8101,463.9077 599.4949,464.9744 Q600.1797,466.041 601.5244,466.041 Q602.1553,466.041 602.7488,465.7712 Q603.3423,465.5015 603.9731,464.9204 Z "/><text fill="#000000" font-family="sans-serif" font-size="12" lengthAdjust="spacingAndGlyphs" textLength="36" x="615" y="466.5352">Article</text><line style="stroke: #A80036; stroke-width: 1.5;" x1="587" x2="653" y1="478" y2="478"/><line style="stroke: #A80036; stroke-width: 1.5;" x1="587" x2="653" y1="486" y2="486"/><!--class User--><rect fill="#FEFECE" filter="url(#f1skz8siqtr0ck)" height="60.9551" id="User" style="stroke: #A80036; stroke-width: 1.5;" width="58" x="357" y="59"/><ellipse cx="372" cy="75" fill="#ADD1B2" rx="11" ry="11" style="stroke: #A80036; stroke-width: 1.0;"/><path d="M374.9731,80.6431 Q374.3921,80.9419 373.7529,81.0913 Q373.1138,81.2407 372.4082,81.2407 Q369.9014,81.2407 368.5815,79.5889 Q367.2617,77.937 367.2617,74.8159 Q367.2617,71.6865 368.5815,70.0347 Q369.9014,68.3828 372.4082,68.3828 Q373.1138,68.3828 373.7612,68.5322 Q374.4087,68.6816 374.9731,68.9805 L374.9731,71.7031 Q374.3423,71.1221 373.7488,70.8523 Q373.1553,70.5825 372.5244,70.5825 Q371.1797,70.5825 370.4949,71.6492 Q369.8101,72.7158 369.8101,74.8159 Q369.8101,76.9077 370.4949,77.9744 Q371.1797,79.041 372.5244,79.041 Q373.1553,79.041 373.7488,78.7712 Q374.3423,78.5015 374.9731,77.9204 Z "/><text fill="#000000" font-family="sans-serif" font-size="12" lengthAdjust="spacingAndGlyphs" textLength="26" x="386" y="79.5352">User</text><line style="stroke: #A80036; stroke-width: 1.5;" x1="358" x2="414" y1="91" y2="91"/><text fill="#000000" font-family="sans-serif" font-size="11" lengthAdjust="spacingAndGlyphs" textLength="31" x="363" y="105.6348">id: str</text><line style="stroke: #A80036; stroke-width: 1.5;" x1="358" x2="414" y1="111.9551" y2="111.9551"/><!--class Permission--><rect fill="#FEFECE" filter="url(#f1skz8siqtr0ck)" height="60.9551" id="Permission" style="stroke: #A80036; stroke-width: 1.5;" width="94" x="339" y="197"/><ellipse cx="354" cy="213" fill="#ADD1B2" rx="11" ry="11" style="stroke: #A80036; stroke-width: 1.0;"/><path d="M356.9731,218.6431 Q356.3921,218.9419 355.7529,219.0913 Q355.1138,219.2407 354.4082,219.2407 Q351.9014,219.2407 350.5815,217.5889 Q349.2617,215.937 349.2617,212.8159 Q349.2617,209.6865 350.5815,208.0347 Q351.9014,206.3828 354.4082,206.3828 Q355.1138,206.3828 355.7612,206.5322 Q356.4087,206.6816 356.9731,206.9805 L356.9731,209.7031 Q356.3423,209.1221 355.7488,208.8523 Q355.1553,208.5825 354.5244,208.5825 Q353.1797,208.5825 352.4949,209.6492 Q351.8101,210.7158 351.8101,212.8159 Q351.8101,214.9077 352.4949,215.9744 Q353.1797,217.041 354.5244,217.041 Q355.1553,217.041 355.7488,216.7712 Q356.3423,216.5015 356.9731,215.9204 Z "/><text fill="#000000" font-family="sans-serif" font-size="12" lengthAdjust="spacingAndGlyphs" textLength="62" x="368" y="217.5352">Permission</text><line style="stroke: #A80036; stroke-width: 1.5;" x1="340" x2="432" y1="229" y2="229"/><text fill="#000000" font-family="sans-serif" font-size="11" lengthAdjust="spacingAndGlyphs" textLength="36" x="345" y="243.6348">uri: str</text><line style="stroke: #A80036; stroke-width: 1.5;" x1="340" x2="432" y1="249.9551" y2="249.9551"/><!--link domain.model.edit.AccessControlledArticleRepository to domain.model.edit.ArticleRepository--><path d="M152,251.707 C152,273.916 152,307.476 152,331.343 " fill="none" id="domain.model.edit.AccessControlledArticleRepository-domain.model.edit.ArticleRepository" style="stroke: #A80036; stroke-width: 1.0;"/><polygon fill="#A80036" points="152,336.583,156,327.583,152,331.583,148,327.583,152,336.583" style="stroke: #A80036; stroke-width: 1.0;"/><text fill="#000000" font-family="sans-serif" font-size="13" lengthAdjust="spacingAndGlyphs" textLength="36" x="153" y="303.5684">proxy</text><!--link domain.model.view.AccessControlledArticleRepository to domain.model.view.ArticleRepository--><path d="M620,251.707 C620,273.916 620,307.476 620,331.343 " fill="none" id="domain.model.view.AccessControlledArticleRepository-domain.model.view.ArticleRepository" style="stroke: #A80036; stroke-width: 1.0;"/><polygon fill="#A80036" points="620,336.583,624,327.583,620,331.583,616,327.583,620,336.583" style="stroke: #A80036; stroke-width: 1.0;"/><text fill="#000000" font-family="sans-serif" font-size="13" lengthAdjust="spacingAndGlyphs" textLength="36" x="621" y="303.5684">proxy</text><!--link Editor to domain.model.edit.AccessControlledArticleRepository--><path d="M184.887,120.01 C177.709,143.251 167.769,175.437 160.701,198.327 " fill="none" id="Editor-domain.model.edit.AccessControlledArticleRepository" style="stroke: #A80036; stroke-width: 1.0;"/><polygon fill="#A80036" points="159.149,203.352,165.6251,195.9318,160.6234,198.5743,157.9809,193.5727,159.149,203.352" style="stroke: #A80036; stroke-width: 1.0;"/><text fill="#000000" font-family="sans-serif" font-size="13" lengthAdjust="spacingAndGlyphs" textLength="104" x="177" y="163.5684">access to Article</text><!--link Viewer to domain.model.view.AccessControlledArticleRepository--><path d="M589.462,120.01 C596.127,143.251 605.357,175.437 611.921,198.327 " fill="none" id="Viewer-domain.model.view.AccessControlledArticleRepository" style="stroke: #A80036; stroke-width: 1.0;"/><polygon fill="#A80036" points="613.362,203.352,614.7253,193.5979,611.9833,198.5458,607.0354,195.8039,613.362,203.352" style="stroke: #A80036; stroke-width: 1.0;"/><text fill="#000000" font-family="sans-serif" font-size="13" lengthAdjust="spacingAndGlyphs" textLength="104" x="603" y="163.5684">access to Article</text><!--link domain.model.edit.ArticleRepository to domain.model.edit.Article--><path d="M152,398.302 C152,414.021 152,431.9555 152,445.8279 " fill="none" id="domain.model.edit.ArticleRepository-domain.model.edit.Article" style="stroke: #A80036; stroke-width: 1.0;"/><polygon fill="#FFFFFF" points="152,385.217,148,391.217,152,397.217,156,391.217,152,385.217" style="stroke: #A80036; stroke-width: 1.0;"/><!--link domain.model.view.ArticleRepository to domain.model.view.Article--><path d="M620,398.302 C620,414.021 620,431.9555 620,445.8279 " fill="none" id="domain.model.view.ArticleRepository-domain.model.view.Article" style="stroke: #A80036; stroke-width: 1.0;"/><polygon fill="#FFFFFF" points="620,385.217,616,391.217,620,397.217,624,391.217,620,385.217" style="stroke: #A80036; stroke-width: 1.0;"/><!--link User to Permission--><path d="M386,120.01 C386,142.665 386,173.82 386,196.578 " fill="none" id="User-Permission" style="stroke: #A80036; stroke-width: 1.0; stroke-dasharray: 7.0,7.0;"/><!--link Editor to User--><path d="M230.75,89.5 C272.797,89.5 314.844,89.5 356.891,89.5 " fill="none" id="Editor-User" style="stroke: #A80036; stroke-width: 1.0; stroke-dasharray: 7.0,7.0;"/><!--link Viewer to User--><path d="M544.435,89.5 C501.399,89.5 458.363,89.5 415.326,89.5 " fill="none" id="Viewer-User" style="stroke: #A80036; stroke-width: 1.0; stroke-dasharray: 7.0,7.0;"/><!--link domain.model.edit.AccessControlledArticleRepository to Permission--><path d="M265.573,227.5 C289.404,227.5 313.425,227.5 333.676,227.5 " fill="none" id="domain.model.edit.AccessControlledArticleRepository-Permission" style="stroke: #A80036; stroke-width: 1.0; stroke-dasharray: 7.0,7.0;"/><polygon fill="#A80036" points="338.741,227.5,329.741,223.5,333.741,227.5,329.741,231.5,338.741,227.5" style="stroke: #A80036; stroke-width: 1.0;"/><text fill="#000000" font-family="sans-serif" font-size="13" lengthAdjust="spacingAndGlyphs" textLength="37" x="283.75" y="221.0684">check</text><!--link domain.model.view.AccessControlledArticleRepository to Permission--><path d="M506.218,227.5 C482.38,227.5 458.364,227.5 438.132,227.5 " fill="none" id="domain.model.view.AccessControlledArticleRepository-Permission" style="stroke: #A80036; stroke-width: 1.0; stroke-dasharray: 7.0,7.0;"/><polygon fill="#A80036" points="433.072,227.5,442.072,231.5,438.072,227.5,442.072,223.5,433.072,227.5" style="stroke: #A80036; stroke-width: 1.0;"/><text fill="#000000" font-family="sans-serif" font-size="13" lengthAdjust="spacingAndGlyphs" textLength="37" x="451.25" y="221.0684">check</text><!--
@startuml

package domain.model.edit {
  class Editor {
    user_id: str
  }
}
package domain.model.view {
  class Viewer {
    user_id: str
  }
}

class domain.model.edit.AccessControlledArticleRepository
class domain.model.view.AccessControlledArticleRepository

class domain.model.edit.ArticleRepository
class domain.model.view.ArticleRepository

class domain.model.edit.Article
class domain.model.view.Article

domain.model.edit.AccessControlledArticleRepository - -> domain.model.edit.ArticleRepository : proxy
domain.model.view.AccessControlledArticleRepository - -> domain.model.view.ArticleRepository : proxy

Editor - -> domain.model.edit.AccessControlledArticleRepository : access to Article
Viewer - -> domain.model.view.AccessControlledArticleRepository : access to Article

domain.model.edit.ArticleRepository o- - domain.model.edit.Article
domain.model.view.ArticleRepository o- - domain.model.view.Article

package domain.model.user {
  class User {
    id: str
  }

  class Permission {
    uri: str
  }

  User .. Permission
}

Editor . User
Viewer . User

domain.model.edit.AccessControlledArticleRepository .> Permission : check
domain.model.view.AccessControlledArticleRepository .> Permission : check

@enduml

PlantUML version 1.2017.15(Tue Jul 04 01:45:34 JST 2017)
(GPL source distribution)
Java Runtime: OpenJDK Runtime Environment
JVM: OpenJDK 64-Bit Server VM
Java Version: 1.8.0_152-release-915-b12
Operating System: Mac OS X
OS Version: 10.13.4
Default Encoding: UTF-8
Language: ja
Country: JP
--></g></svg>